<svg width="24" height="27" viewBox="0 0 24 27" fill="none" xmlns="http://www.w3.org/2000/svg">
<path d="M14.75 1H3.75C3.02065 1 2.32118 1.26339 1.80546 1.73223C1.28973 2.20107 1 2.83696 1 3.5V23.5C1 24.163 1.28973 24.7989 1.80546 25.2678C2.32118 25.7366 3.02065 26 3.75 26H20.25C20.9793 26 21.6788 25.7366 22.1945 25.2678C22.7103 24.7989 23 24.163 23 23.5V8.5L14.75 1Z" stroke="black" stroke-width="2" stroke-linecap="round" stroke-linejoin="round"/>
<path d="M14.75 1V8.5H23" stroke="black" stroke-width="2" stroke-linecap="round" stroke-linejoin="round"/>
<path d="M17.5 14.7501H6.5" stroke="black" stroke-width="2" stroke-linecap="round" stroke-linejoin="round"/>
<path d="M17.5 19.75H6.5" stroke="black" stroke-width="2" stroke-linecap="round" stroke-linejoin="round"/>
<path d="M9.25 9.75H7.875H6.5" stroke="black" stroke-width="2" stroke-linecap="round" stroke-linejoin="round"/>
</svg>
