<?xml version="1.0" encoding="UTF-8"?><svg id="_лой_2" xmlns="http://www.w3.org/2000/svg" viewBox="0 0 335.65 130.88"><g id="_лой_1-2"><g><g><path d="M84.13,129.11H0V39.32H23.39V111.15h6.93V39.32h23.39V111.15h6.93V39.32h23.5v89.79Z"/><path d="M147.15,129.11h-23.39V57.28h-6.93v71.83h-23.39V39.32h53.71v89.79Z"/><path d="M197.87,78.25c3.4,1.15,5.93,3.02,7.59,5.63s2.49,8.72,2.49,18.33c0,7.14-.81,12.67-2.44,16.61s-4.43,6.93-8.42,8.98c-3.99,2.05-9.11,3.08-15.35,3.08-7.09,0-12.66-1.19-16.71-3.57s-6.71-5.3-7.98-8.76-1.91-9.45-1.91-17.99v-7.09h22.39v14.58c0,3.88,.23,6.35,.69,7.4s1.49,1.58,3.08,1.58c1.74,0,2.88-.67,3.44-2s.83-4.8,.83-10.42v-6.21c0-3.44-.39-5.95-1.16-7.54s-1.92-2.63-3.44-3.13-4.45-.79-8.81-.86v-13.02c5.32,0,8.61-.2,9.87-.61s2.16-1.29,2.72-2.66c.55-1.37,.83-3.51,.83-6.43v-4.99c0-3.14-.32-5.21-.97-6.21s-1.65-1.5-3.02-1.5c-1.55,0-2.61,.53-3.19,1.58s-.86,3.3-.86,6.73v7.37h-22.39v-7.65c0-8.57,1.96-14.36,5.87-17.38,3.92-3.01,10.14-4.52,18.68-4.52,10.68,0,17.92,2.09,21.73,6.26,3.81,4.17,5.71,9.97,5.71,17.39,0,5.02-.68,8.65-2.05,10.88-1.37,2.23-3.77,4.27-7.21,6.12Z"/><path d="M216.65,39.32h23.39l.11,37.91c4.4-.11,6.67-2.55,6.82-7.32l.44-17.51c.15-6.47,1.4-10.83,3.77-13.08h21.56c-2.11,2.18-3.14,6.69-3.1,13.52l.11,15.41c.07,9.31-5.17,14.61-15.74,15.91,10.57,1.29,15.81,6.67,15.74,16.13l-.11,14.3c-.04,6.8,1,11.64,3.1,14.52h-21.56c-2.51-2.25-3.77-6.61-3.77-13.08v-17.51c0-2.22-.67-4-2.02-5.35s-3.09-2.04-5.24-2.08l-.11,38.02h-23.39V39.32Z"/></g><circle cx="289.99" cy="45.67" r="45.67"/></g></g></svg>