<svg width="19" height="18" viewBox="0 0 19 18" fill="none" xmlns="http://www.w3.org/2000/svg">
<path d="M17.979 12.9791V15.3877C17.9799 15.6113 17.934 15.8327 17.8443 16.0375C17.7545 16.2424 17.6229 16.4263 17.4578 16.5775C17.2927 16.7286 17.0978 16.8437 16.8855 16.9154C16.6733 16.987 16.4484 17.0136 16.2252 16.9935C13.7497 16.725 11.3718 15.8808 9.28262 14.5286C7.33886 13.2959 5.6909 11.6512 4.45576 9.71135C3.09618 7.61679 2.25009 5.23206 1.98602 2.75036C1.96592 2.52834 1.99236 2.30457 2.06365 2.0933C2.13495 1.88203 2.24954 1.6879 2.40014 1.52325C2.55073 1.35861 2.73403 1.22706 2.93835 1.13699C3.14268 1.04691 3.36356 1.00029 3.58693 1.00008H6.00036C6.39077 0.996243 6.76927 1.13422 7.06529 1.3883C7.36131 1.64237 7.55466 1.99521 7.60931 2.38103C7.71117 3.15185 7.90008 3.9087 8.17244 4.63713C8.28068 4.9245 8.3041 5.23682 8.23994 5.53707C8.17578 5.83732 8.02672 6.11292 7.81043 6.33121L6.78874 7.35087C7.93396 9.36092 9.60155 11.0252 11.6156 12.1682L12.6373 11.1485C12.856 10.9326 13.1322 10.7839 13.433 10.7198C13.7338 10.6558 14.0468 10.6792 14.3347 10.7872C15.0646 11.059 15.8229 11.2476 16.5953 11.3492C16.9861 11.4042 17.343 11.6007 17.5981 11.9012C17.8532 12.2017 17.9888 12.5853 17.979 12.9791Z" stroke="#101010" stroke-width="2" stroke-linecap="round" stroke-linejoin="round"/>
</svg>
